<?xml version="1.0" encoding="UTF-8" standalone="no"?>
<svg width="352px" height="46px" viewBox="0 0 352 46" version="1.1" xmlns="http://www.w3.org/2000/svg" xmlns:xlink="http://www.w3.org/1999/xlink" xmlns:sketch="http://www.bohemiancoding.com/sketch/ns">
    <!-- Generator: Sketch 3.3.1 (12002) - http://www.bohemiancoding.com/sketch -->
    <title>BC_LOGO</title>
    <desc>Created with Sketch.</desc>
    <defs></defs>
    <g id="Page-1" stroke="none" stroke-width="1" fill="none" fill-rule="evenodd" sketch:type="MSPage">
        <g id="BC_LOGO" sketch:type="MSLayerGroup" transform="translate(-14.000000, -10.000000)" fill="#FFFFFF">
            <g id="Group" sketch:type="MSShapeGroup">
                <g id="Group-+-Group-Copy" transform="translate(35.726399, 34.922303) rotate(-15.000000) translate(-35.726399, -34.922303) translate(6.726399, 6.922303)">
                    <g id="Group-Copy" transform="translate(30.287771, 29.102990) scale(-1, 1) rotate(117.000000) translate(-30.287771, -29.102990) translate(13.787771, 7.102990)">
                        <circle id="Oval-1" cx="22" cy="2" r="2"></circle>
                        <circle id="Oval-1-Copy" cx="2" cy="41" r="2"></circle>
                        <circle id="Oval-1-Copy-2" cx="31" cy="31" r="2"></circle>
                        <path d="M1,42 L22,2 L31,31 L1,42 Z" id="Path-1" stroke-opacity="0.287901947" stroke="#FFFFFF" fill-opacity="0.111554574"></path>
                    </g>
                    <g id="Group-Copy-2" transform="translate(26.424068, 28.067714) rotate(147.000000) translate(-26.424068, -28.067714) translate(9.924068, 6.067714)">
                        <circle id="Oval-1" cx="22" cy="2" r="2"></circle>
                        <circle id="Oval-1-Copy" cx="2" cy="41" r="2"></circle>
                        <circle id="Oval-1-Copy-2" cx="31" cy="31" r="2"></circle>
                        <path d="M1,42 L22,2 L31,31 L1,42 Z" id="Path-1" stroke-opacity="0.287901947" stroke="#FFFFFF" fill-opacity="0.111554574"></path>
                    </g>
                </g>
                <g transform="translate(70.000000, 9.000000)">
                    <path d="M52.28,27.68 L52.279989,6 L52.279989,1 L57.9999902,1 L57.9999902,6 L58,27.68 L52.28,27.68 Z" id="T" transform="translate(55.139995, 14.340000) scale(-1, 1) translate(-55.139995, -14.340000) "></path>
                    <path d="M63.28,27.68 L63.279989,6 L63.279989,1 L68.9999902,1 L68.9999902,6 L69,27.68 L63.28,27.68 Z" id="T-Copy" transform="translate(66.139995, 14.340000) scale(-1, 1) translate(-66.139995, -14.340000) "></path>
                    <path d="M61.3999973,22.6000027 L61.3999973,-15.6000027 L66.3999973,-15.6000027 L66.3999973,22.6000027 L61.3999973,22.6000027 Z" id="T-Copy-2" transform="translate(63.899997, 3.500000) scale(-1, 1) rotate(-90.000000) translate(-63.899997, -3.500000) "></path>
                    <path d="M90.52,27.68 L85.28,18.2 L81.12,18.2 L81.12,27.68 L75.44,27.68 L75.44,1 L87.92,1 C89.3066736,1 90.5533278,1.2133312 91.66,1.64 C92.7666722,2.0666688 93.7066628,2.6666628 94.48,3.44 C95.2533372,4.2133372 95.8466646,5.1266614 96.26,6.18 C96.6733354,7.2333386 96.88,8.3733272 96.88,9.6 C96.88,10.7733392 96.713335,11.8133288 96.38,12.72 C96.046665,13.6266712 95.6000028,14.4066634 95.04,15.06 C94.4799972,15.7133366 93.8533368,16.2466646 93.16,16.66 C92.4666632,17.0733354 91.7600036,17.3599992 91.04,17.52 L97.04,27.68 L90.52,27.68 Z M87.08,13.2 C88.2266724,13.2 89.1799962,12.8800032 89.94,12.24 C90.7000038,11.5999968 91.08,10.7200056 91.08,9.6 C91.08,8.4799944 90.7000038,7.6000032 89.94,6.96 C89.1799962,6.3199968 88.2266724,6 87.08,6 L81.12,6 L81.12,13.2 L87.08,13.2 Z M101.16,27.68 L101.16,1 L120.04,1.00000732 L120.04,6 L106.84,6 L106.84,11.64 L119.76,11.64 L119.76,16.6399915 L106.84,16.64 L106.84,22.68 L120.04,22.68 L120.04,27.68 L101.16,27.68 Z" id="RE" transform="translate(97.740000, 14.340000) scale(-1, 1) translate(-97.740000, -14.340000) "></path>
                    <path d="M0.64,27.68 L0.64,1 L14.68,1 C15.9600064,1 17.0799952,1.1866648 18.04,1.56 C19.0000048,1.9333352 19.7999968,2.4333302 20.44,3.06 C21.0800032,3.6866698 21.5599984,4.4133292 21.88,5.24 C22.2000016,6.0666708 22.36,6.9199956 22.36,7.8 C22.36,8.6533376 22.2400012,9.4266632 22,10.12 C21.7599988,10.8133368 21.4266688,11.4199974 21,11.94 C20.5733312,12.4600026 20.0866694,12.886665 19.54,13.22 C18.9933306,13.553335 18.4000032,13.786666 17.76,13.92 C18.4800036,14.0266672 19.1466636,14.2733314 19.76,14.66 C20.3733364,15.0466686 20.913331,15.5266638 21.38,16.1 C21.846669,16.6733362 22.213332,17.3399962 22.48,18.1 C22.746668,18.8600038 22.88,19.6533292 22.88,20.48 C22.88,21.4933384 22.713335,22.433329 22.38,23.3 C22.046665,24.166671 21.5533366,24.9266634 20.9,25.58 C20.2466634,26.2333366 19.4400048,26.7466648 18.48,27.12 C17.5199952,27.4933352 16.4000064,27.68 15.12,27.68 L0.64,27.68 Z M13.44,11.68 C14.4000048,11.68 15.1599972,11.413336 15.72,10.88 C16.2800028,10.346664 16.56,9.6533376 16.56,8.8 C16.56,7.9466624 16.2800028,7.2466694 15.72,6.7 C15.1599972,6.1533306 14.4000048,5.88 13.44,5.88 L6.32,5.88 L6.32,11.68 L13.44,11.68 Z M13.64,22.76 C14.7333388,22.76 15.579997,22.4866694 16.18,21.94 C16.780003,21.3933306 17.08,20.6400048 17.08,19.68 C17.08,18.8266624 16.7866696,18.0933364 16.2,17.48 C15.6133304,16.8666636 14.7600056,16.56 13.64,16.56 L6.32,16.56 L6.32,22.76 L13.64,22.76 Z M27.16,27.68 L27.16,1 L46.04,1 L46.04,6 L32.84,6 L32.84,11.64 L45.76,11.6399915 L45.76,16.64 L32.84,16.64 L32.84,22.68 L46.04,22.68 L46.04,27.68 L27.16,27.68 Z" id="BE"></path>
                </g>
                <path d="M209.389333,36.6800003 C207.559102,36.6800003 205.851341,36.3577813 204.266,35.7133336 C202.680659,35.068886 201.295117,34.1602284 200.109333,32.9873336 C198.92355,31.8144388 197.995559,30.409564 197.325333,28.7726669 C196.655108,27.1357698 196.32,25.324899 196.32,23.3400002 C196.32,21.3551013 196.655108,19.5442305 197.325333,17.9073334 C197.995559,16.2704363 198.92355,14.8655615 200.109333,13.6926667 C201.295117,12.5197719 202.680659,11.6111144 204.266,10.9666667 C205.851341,10.322219 207.559102,10 209.389333,10 C211.451566,10 213.255992,10.4124403 214.802667,11.2373333 C216.349341,12.0622264 217.676884,13.1706597 218.785334,14.5626667 L216.929334,15.7613334 C216.104441,14.6271055 215.028229,13.7184479 213.700667,13.0353334 C212.373105,12.3522188 210.936008,12.0106667 209.389333,12.0106667 C207.868437,12.0106667 206.457118,12.287775 205.155333,12.842 C203.853549,13.396225 202.719338,14.1695506 201.752667,15.1620001 C200.785995,16.1544495 200.025558,17.3466598 199.471333,18.7386668 C198.917108,20.1306737 198.64,21.6644362 198.64,23.3400002 C198.64,25.0155641 198.917108,26.5428822 199.471333,27.9220002 C200.025558,29.3011182 200.785995,30.4933285 201.752667,31.4986669 C202.719338,32.5040053 203.853549,33.2837753 205.155333,33.8380003 C206.457118,34.3922253 207.868437,34.6693336 209.389333,34.6693336 C210.936008,34.6693336 212.373105,34.3277815 213.700667,33.6446669 C215.028229,32.9615524 216.104441,32.0528948 216.929334,30.9186669 L218.785334,32.0786669 C217.625328,33.4964518 216.284897,34.6177739 214.764,35.442667 C213.243104,36.26756 211.451566,36.6800003 209.389333,36.6800003 L209.389333,36.6800003 Z M234.832,36.6800003 C232.924435,36.6800003 231.203786,36.3384482 229.67,35.6553336 C228.136215,34.9722191 226.821561,34.0313396 225.726,32.8326669 C224.630439,31.6339943 223.786226,30.222675 223.193334,28.5986669 C222.600442,26.9746587 222.304,25.2217874 222.304,23.3400002 C222.304,21.4582129 222.600442,19.7053416 223.193334,18.0813334 C223.786226,16.4573253 224.630439,15.0460061 225.726,13.8473334 C226.821561,12.6486607 228.136215,11.7077812 229.67,11.0246667 C231.203786,10.3415521 232.924435,10 234.832,10 C236.713788,10 238.427993,10.3415521 239.974667,11.0246667 C241.521342,11.7077812 242.842439,12.6486607 243.938001,13.8473334 C245.033562,15.0460061 245.877775,16.4573253 246.470667,18.0813334 C247.063559,19.7053416 247.360001,21.4582129 247.360001,23.3400002 C247.360001,25.2217874 247.063559,26.9746587 246.470667,28.5986669 C245.877775,30.222675 245.033562,31.6339943 243.938001,32.8326669 C242.842439,34.0313396 241.521342,34.9722191 239.974667,35.6553336 C238.427993,36.3384482 236.713788,36.6800003 234.832,36.6800003 L234.832,36.6800003 Z M234.832,34.6693336 C236.378675,34.6693336 237.777105,34.3857809 239.027334,33.8186669 C240.277562,33.251553 241.347329,32.4588942 242.236667,31.4406669 C243.126005,30.4224396 243.815554,29.2237849 244.305334,27.8446669 C244.795114,26.4655488 245.040001,24.9640083 245.040001,23.3400002 C245.040001,21.6902141 244.795114,20.1757848 244.305334,18.7966668 C243.815554,17.4175487 243.126005,16.2253384 242.236667,15.2200001 C241.347329,14.2146617 240.277562,13.4284473 239.027334,12.8613334 C237.777105,12.2942194 236.378675,12.0106667 234.832,12.0106667 C233.259548,12.0106667 231.848229,12.2942194 230.598,12.8613334 C229.347772,13.4284473 228.278005,14.2146617 227.388667,15.2200001 C226.499329,16.2253384 225.816225,17.4175487 225.339334,18.7966668 C224.862442,20.1757848 224.624,21.6902141 224.624,23.3400002 C224.624,24.9640083 224.862442,26.4655488 225.339334,27.8446669 C225.816225,29.2237849 226.499329,30.4224396 227.388667,31.4406669 C228.278005,32.4588942 229.347772,33.251553 230.598,33.8186669 C231.848229,34.3857809 233.259548,34.6693336 234.832,34.6693336 L234.832,34.6693336 Z M271.256001,36.2160003 L255.016001,14.06 L255.016001,36.2160003 L252.812001,36.2160003 L252.812001,10.4253333 L255.054667,10.4253333 L271.217334,32.2720003 L271.217334,10.4253333 L273.421334,10.4253333 L273.421334,36.2160003 L271.256001,36.2160003 Z M286.413334,36.2160003 L286.413334,12.436 L277.984001,12.436 L277.984001,10.4253333 L297.085334,10.4253333 L297.085334,12.436 L288.656001,12.436 L288.656001,36.2160003 L286.413334,36.2160003 Z M301.648001,36.2160003 L301.648001,10.4253333 L318.004001,10.4253333 L318.004001,12.436 L303.852001,12.436 L303.852001,21.9866668 L317.733335,21.9866668 L317.733335,23.9973335 L303.852001,23.9973335 L303.852001,34.2053336 L318.004001,34.2053336 L318.004001,36.2160003 L301.648001,36.2160003 Z M341.706668,36.2160003 L332.697335,24.5773335 L323.726668,36.2160003 L320.942668,36.2160003 L331.344002,22.9920001 L321.522668,10.4253333 L324.345335,10.4253333 L332.697335,21.3680001 L341.088002,10.4253333 L343.872002,10.4253333 L334.089335,22.9533335 L344.452002,36.2160003 L341.706668,36.2160003 Z M354.969335,36.2160003 L354.969335,12.436 L346.540002,12.436 L346.540002,10.4253333 L365.641335,10.4253333 L365.641335,12.436 L357.212002,12.436 L357.212002,36.2160003 L354.969335,36.2160003 Z" id="CONTEXT"></path>
                <path d="M73.691,55.108 C73.1329972,55.108 72.654502,55.0210009 72.2555,54.847 C71.856498,54.6729991 71.5220014,54.4420014 71.252,54.154 L71.837,53.344 C72.0470011,53.5660011 72.3109984,53.7594992 72.629,53.9245 C72.9470016,54.0895008 73.3159979,54.172 73.736,54.172 C73.9520011,54.172 74.1364992,54.1480002 74.2895,54.1 C74.4425008,54.0519998 74.5669995,53.9890004 74.663,53.911 C74.7590005,53.8329996 74.8294998,53.7460005 74.8745,53.65 C74.9195002,53.5539995 74.942,53.4550005 74.942,53.353 C74.942,53.1969992 74.8925005,53.0680005 74.7935,52.966 C74.6944995,52.8639995 74.5625008,52.7785003 74.3975,52.7095 C74.2324992,52.6404997 74.0450011,52.5805003 73.835,52.5295 C73.624999,52.4784997 73.4105011,52.4230003 73.1915,52.363 C72.9724989,52.3029997 72.7580011,52.2325004 72.548,52.1515 C72.337999,52.0704996 72.1505008,51.9655006 71.9855,51.8365 C71.8204992,51.7074994 71.6885005,51.5485009 71.5895,51.3595 C71.4904995,51.1704991 71.441,50.9380014 71.441,50.662 C71.441,50.4159988 71.4934995,50.1865011 71.5985,49.9735 C71.7035005,49.7604989 71.851999,49.5745008 72.044,49.4155 C72.236001,49.2564992 72.4654987,49.1320005 72.7325,49.042 C72.9995013,48.9519996 73.2979984,48.907 73.628,48.907 C74.0960023,48.907 74.5174981,48.9789993 74.8925,49.123 C75.2675019,49.2670007 75.5959986,49.4739987 75.878,49.744 L75.275,50.527 C75.0409988,50.2929988 74.7725015,50.1205006 74.4695,50.0095 C74.1664985,49.8984994 73.8560016,49.843 73.538,49.843 C73.2259984,49.843 72.9785009,49.9104993 72.7955,50.0455 C72.6124991,50.1805007 72.521,50.3619989 72.521,50.59 C72.521,50.7760009 72.6064991,50.9184995 72.7775,51.0175 C72.9485009,51.1165005 73.1644987,51.2034996 73.4255,51.2785 C73.6865013,51.3535004 73.9669985,51.4284996 74.267,51.5035 C74.5670015,51.5785004 74.8474987,51.6834993 75.1085,51.8185 C75.3695013,51.9535007 75.5854991,52.1334989 75.7565,52.3585 C75.9275009,52.5835011 76.013,52.8819981 76.013,53.254 C76.013,53.5060013 75.9680005,53.7429989 75.878,53.965 C75.7879996,54.1870011 75.6485009,54.3834991 75.4595,54.5545 C75.2704991,54.7255009 75.0290015,54.8604995 74.735,54.9595 C74.4409985,55.0585005 74.093002,55.108 73.691,55.108 L73.691,55.108 Z M79.985,55 L79.985,48.997 L84.098,48.997 L84.098,49.924 L81.038,49.924 L81.038,51.481 L84.035,51.481 L84.035,52.408 L81.038,52.408 L81.038,54.073 L84.098,54.073 L84.098,55 L79.985,55 Z M92.381,55 L91.94,53.848 L89.186,53.848 L88.745,55 L87.548,55 L89.906,48.997 L91.22,48.997 L93.578,55 L92.381,55 Z M90.563,50.059 L89.483,52.921 L91.643,52.921 L90.563,50.059 Z M100.664,55 L99.332,52.759 L98.288,52.759 L98.288,55 L97.235,55 L97.235,48.997 L99.872,48.997 C100.166001,48.997 100.434499,49.0434995 100.6775,49.1365 C100.920501,49.2295005 101.127499,49.3584992 101.2985,49.5235 C101.469501,49.6885008 101.6015,49.8864988 101.6945,50.1175 C101.7875,50.3485012 101.834,50.6019986 101.834,50.878 C101.834,51.1480014 101.7935,51.384999 101.7125,51.589 C101.6315,51.793001 101.525001,51.9684993 101.393,52.1155 C101.260999,52.2625007 101.109501,52.3794996 100.9385,52.4665 C100.767499,52.5535004 100.592001,52.6119999 100.412,52.642 L101.879,55 L100.664,55 Z M99.728,51.832 C100.028002,51.832 100.273999,51.7450009 100.466,51.571 C100.658001,51.3969991 100.754,51.1660014 100.754,50.878 C100.754,50.5899986 100.658001,50.3590009 100.466,50.185 C100.273999,50.0109991 100.028002,49.924 99.728,49.924 L98.288,49.924 L98.288,51.832 L99.728,51.832 Z M108.767,55.108 C108.322998,55.108 107.909002,55.0330008 107.525,54.883 C107.140998,54.7329993 106.808001,54.5215014 106.526,54.2485 C106.243999,53.9754986 106.022001,53.6485019 105.86,53.2675 C105.697999,52.8864981 105.617,52.4650023 105.617,52.003 C105.617,51.5409977 105.697999,51.1195019 105.86,50.7385 C106.022001,50.3574981 106.243999,50.0305014 106.526,49.7575 C106.808001,49.4844986 107.140998,49.2730008 107.525,49.123 C107.909002,48.9729993 108.322998,48.898 108.767,48.898 C109.073002,48.898 109.348999,48.9339996 109.595,49.006 C109.841001,49.0780004 110.062999,49.1769994 110.261,49.303 C110.459001,49.4290006 110.632999,49.5729992 110.783,49.735 C110.933001,49.8970008 111.064999,50.0679991 111.179,50.248 L110.279,50.707 C110.134999,50.4549987 109.928001,50.2465008 109.658,50.0815 C109.387999,49.9164992 109.091002,49.834 108.767,49.834 C108.466999,49.834 108.191001,49.8879995 107.939,49.996 C107.686999,50.1040005 107.469501,50.253999 107.2865,50.446 C107.103499,50.638001 106.959501,50.8674987 106.8545,51.1345 C106.749499,51.4015013 106.697,51.6909984 106.697,52.003 C106.697,52.3210016 106.749499,52.6119987 106.8545,52.876 C106.959501,53.1400013 107.103499,53.367999 107.2865,53.56 C107.469501,53.752001 107.686999,53.9019995 107.939,54.01 C108.191001,54.1180005 108.466999,54.172 108.767,54.172 C109.091002,54.172 109.387999,54.0895008 109.658,53.9245 C109.928001,53.7594992 110.134999,53.5510013 110.279,53.299 L111.179,53.758 C111.064999,53.9380009 110.931501,54.1089992 110.7785,54.271 C110.625499,54.4330008 110.451501,54.5769994 110.2565,54.703 C110.061499,54.8290006 109.841001,54.9279996 109.595,55 C109.348999,55.0720004 109.073002,55.108 108.767,55.108 L108.767,55.108 Z M119.201,55 L119.201,52.381 L116.078,52.381 L116.078,55 L115.025,55 L115.025,48.997 L116.078,48.997 L116.078,51.454 L119.201,51.454 L119.201,48.997 L120.254,48.997 L120.254,55 L119.201,55 Z M154.526,55 L153.194,52.759 L152.15,52.759 L152.15,55 L151.097,55 L151.097,48.997 L153.734,48.997 C154.028001,48.997 154.296499,49.0434995 154.5395,49.1365 C154.782501,49.2295005 154.989499,49.3584992 155.1605,49.5235 C155.331501,49.6885008 155.4635,49.8864988 155.5565,50.1175 C155.6495,50.3485012 155.696,50.6019986 155.696,50.878 C155.696,51.1480014 155.6555,51.384999 155.5745,51.589 C155.4935,51.793001 155.387001,51.9684993 155.255,52.1155 C155.122999,52.2625007 154.971501,52.3794996 154.8005,52.4665 C154.629499,52.5535004 154.454001,52.6119999 154.274,52.642 L155.741,55 L154.526,55 Z M153.59,51.832 C153.890001,51.832 154.135999,51.7450009 154.328,51.571 C154.520001,51.3969991 154.616,51.1660014 154.616,50.878 C154.616,50.5899986 154.520001,50.3590009 154.328,50.185 C154.135999,50.0109991 153.890001,49.924 153.59,49.924 L152.15,49.924 L152.15,51.832 L153.59,51.832 Z M159.749,55 L159.749,48.997 L163.862,48.997 L163.862,49.924 L160.802,49.924 L160.802,51.481 L163.799,51.481 L163.799,52.408 L160.802,52.408 L160.802,54.073 L163.862,54.073 L163.862,55 L159.749,55 Z M170.822,55.108 C170.377998,55.108 169.964002,55.0330008 169.58,54.883 C169.195998,54.7329993 168.863001,54.5215014 168.581,54.2485 C168.298999,53.9754986 168.077001,53.6485019 167.915,53.2675 C167.752999,52.8864981 167.672,52.4650023 167.672,52.003 C167.672,51.5409977 167.752999,51.1195019 167.915,50.7385 C168.077001,50.3574981 168.298999,50.0305014 168.581,49.7575 C168.863001,49.4844986 169.195998,49.2730008 169.58,49.123 C169.964002,48.9729993 170.377998,48.898 170.822,48.898 C171.128002,48.898 171.403999,48.9339996 171.65,49.006 C171.896001,49.0780004 172.117999,49.1769994 172.316,49.303 C172.514001,49.4290006 172.687999,49.5729992 172.838,49.735 C172.988001,49.8970008 173.119999,50.0679991 173.234,50.248 L172.334,50.707 C172.189999,50.4549987 171.983001,50.2465008 171.713,50.0815 C171.442999,49.9164992 171.146002,49.834 170.822,49.834 C170.521998,49.834 170.246001,49.8879995 169.994,49.996 C169.741999,50.1040005 169.524501,50.253999 169.3415,50.446 C169.158499,50.638001 169.014501,50.8674987 168.9095,51.1345 C168.804499,51.4015013 168.752,51.6909984 168.752,52.003 C168.752,52.3210016 168.804499,52.6119987 168.9095,52.876 C169.014501,53.1400013 169.158499,53.367999 169.3415,53.56 C169.524501,53.752001 169.741999,53.9019995 169.994,54.01 C170.246001,54.1180005 170.521998,54.172 170.822,54.172 C171.146002,54.172 171.442999,54.0895008 171.713,53.9245 C171.983001,53.7594992 172.189999,53.5510013 172.334,53.299 L173.234,53.758 C173.119999,53.9380009 172.986501,54.1089992 172.8335,54.271 C172.680499,54.4330008 172.506501,54.5769994 172.3115,54.703 C172.116499,54.8290006 171.896001,54.9279996 171.65,55 C171.403999,55.0720004 171.128002,55.108 170.822,55.108 L170.822,55.108 Z M179.879,55.108 C179.428998,55.108 179.016502,55.0300008 178.6415,54.874 C178.266498,54.7179992 177.942501,54.5020014 177.6695,54.226 C177.396499,53.9499986 177.185001,53.6230019 177.035,53.245 C176.884999,52.8669981 176.81,52.4530023 176.81,52.003 C176.81,51.5529978 176.884999,51.1390019 177.035,50.761 C177.185001,50.3829981 177.396499,50.0560014 177.6695,49.78 C177.942501,49.5039986 178.266498,49.2880008 178.6415,49.132 C179.016502,48.9759992 179.428998,48.898 179.879,48.898 C180.329002,48.898 180.741498,48.9759992 181.1165,49.132 C181.491502,49.2880008 181.815499,49.5039986 182.0885,49.78 C182.361501,50.0560014 182.572999,50.3829981 182.723,50.761 C182.873001,51.1390019 182.948,51.5529978 182.948,52.003 C182.948,52.4530023 182.873001,52.8669981 182.723,53.245 C182.572999,53.6230019 182.361501,53.9499986 182.0885,54.226 C181.815499,54.5020014 181.491502,54.7179992 181.1165,54.874 C180.741498,55.0300008 180.329002,55.108 179.879,55.108 L179.879,55.108 Z M179.879,54.172 C180.179002,54.172 180.451999,54.1165006 180.698,54.0055 C180.944001,53.8944994 181.153999,53.743001 181.328,53.551 C181.502001,53.358999 181.6355,53.1295013 181.7285,52.8625 C181.8215,52.5954987 181.868,52.3090015 181.868,52.003 C181.868,51.6909984 181.8215,51.4030013 181.7285,51.139 C181.6355,50.8749987 181.502001,50.647001 181.328,50.455 C181.153999,50.262999 180.944001,50.1115006 180.698,50.0005 C180.451999,49.8894994 180.179002,49.834 179.879,49.834 C179.572998,49.834 179.298501,49.8894994 179.0555,50.0005 C178.812499,50.1115006 178.604001,50.262999 178.43,50.455 C178.255999,50.647001 178.1225,50.8749987 178.0295,51.139 C177.9365,51.4030013 177.89,51.6909984 177.89,52.003 C177.89,52.3090015 177.9365,52.5954987 178.0295,52.8625 C178.1225,53.1295013 178.255999,53.358999 178.43,53.551 C178.604001,53.743001 178.812499,53.8944994 179.0555,54.0055 C179.298501,54.1165006 179.572998,54.172 179.879,54.172 L179.879,54.172 Z M192.149,55 L192.149,50.545 L190.304,55 L189.854,55 L188.018,50.545 L188.018,55 L186.965,55 L186.965,48.997 L188.45,48.997 L190.079,52.948 L191.717,48.997 L193.202,48.997 L193.202,55 L192.149,55 Z M202.664,55 L202.664,50.545 L200.819,55 L200.369,55 L198.533,50.545 L198.533,55 L197.48,55 L197.48,48.997 L198.965,48.997 L200.594,52.948 L202.232,48.997 L203.717,48.997 L203.717,55 L202.664,55 Z M207.995,55 L207.995,48.997 L212.108,48.997 L212.108,49.924 L209.048,49.924 L209.048,51.481 L212.045,51.481 L212.045,52.408 L209.048,52.408 L209.048,54.073 L212.108,54.073 L212.108,55 L207.995,55 Z M220.373,55 L217.241,50.716 L217.241,55 L216.188,55 L216.188,48.997 L217.268,48.997 L220.337,53.164 L220.337,48.997 L221.39,48.997 L221.39,55 L220.373,55 Z M225.668,55 L225.668,48.997 L227.9,48.997 C228.368002,48.997 228.795498,49.0704993 229.1825,49.2175 C229.569502,49.3645007 229.899499,49.5714987 230.1725,49.8385 C230.445501,50.1055013 230.658499,50.4234982 230.8115,50.7925 C230.964501,51.1615018 231.041,51.5649978 231.041,52.003 C231.041,52.4470022 230.964501,52.8519982 230.8115,53.218 C230.658499,53.5840018 230.445501,53.8989987 230.1725,54.163 C229.899499,54.4270013 229.569502,54.6324993 229.1825,54.7795 C228.795498,54.9265007 228.368002,55 227.9,55 L225.668,55 Z M227.9,54.073 C228.224002,54.073 228.514999,54.0190005 228.773,53.911 C229.031001,53.8029995 229.246999,53.6545009 229.421,53.4655 C229.595001,53.2764991 229.7285,53.0560013 229.8215,52.804 C229.9145,52.5519987 229.961,52.2850014 229.961,52.003 C229.961,51.7149986 229.916,51.4435013 229.826,51.1885 C229.736,50.9334987 229.604001,50.7130009 229.43,50.527 C229.255999,50.3409991 229.041501,50.1940005 228.7865,50.086 C228.531499,49.9779995 228.236002,49.924 227.9,49.924 L226.721,49.924 L226.721,54.073 L227.9,54.073 Z M238.946,55 L238.505,53.848 L235.751,53.848 L235.31,55 L234.113,55 L236.471,48.997 L237.785,48.997 L240.143,55 L238.946,55 Z M237.128,50.059 L236.048,52.921 L238.208,52.921 L237.128,50.059 Z M244.646,55 L244.646,49.924 L242.828,49.924 L242.828,48.997 L247.517,48.997 L247.517,49.924 L245.699,49.924 L245.699,55 L244.646,55 Z M251.408,55 L251.408,48.997 L252.461,48.997 L252.461,55 L251.408,55 Z M259.538,55.108 C259.087998,55.108 258.675502,55.0300008 258.3005,54.874 C257.925498,54.7179992 257.601501,54.5020014 257.3285,54.226 C257.055499,53.9499986 256.844001,53.6230019 256.694,53.245 C256.543999,52.8669981 256.469,52.4530023 256.469,52.003 C256.469,51.5529978 256.543999,51.1390019 256.694,50.761 C256.844001,50.3829981 257.055499,50.0560014 257.3285,49.78 C257.601501,49.5039986 257.925498,49.2880008 258.3005,49.132 C258.675502,48.9759992 259.087998,48.898 259.538,48.898 C259.988002,48.898 260.400498,48.9759992 260.7755,49.132 C261.150502,49.2880008 261.474499,49.5039986 261.7475,49.78 C262.020501,50.0560014 262.231999,50.3829981 262.382,50.761 C262.532001,51.1390019 262.607,51.5529978 262.607,52.003 C262.607,52.4530023 262.532001,52.8669981 262.382,53.245 C262.231999,53.6230019 262.020501,53.9499986 261.7475,54.226 C261.474499,54.5020014 261.150502,54.7179992 260.7755,54.874 C260.400498,55.0300008 259.988002,55.108 259.538,55.108 L259.538,55.108 Z M259.538,54.172 C259.838002,54.172 260.110999,54.1165006 260.357,54.0055 C260.603001,53.8944994 260.812999,53.743001 260.987,53.551 C261.161001,53.358999 261.2945,53.1295013 261.3875,52.8625 C261.4805,52.5954987 261.527,52.3090015 261.527,52.003 C261.527,51.6909984 261.4805,51.4030013 261.3875,51.139 C261.2945,50.8749987 261.161001,50.647001 260.987,50.455 C260.812999,50.262999 260.603001,50.1115006 260.357,50.0005 C260.110999,49.8894994 259.838002,49.834 259.538,49.834 C259.231998,49.834 258.957501,49.8894994 258.7145,50.0005 C258.471499,50.1115006 258.263001,50.262999 258.089,50.455 C257.914999,50.647001 257.7815,50.8749987 257.6885,51.139 C257.5955,51.4030013 257.549,51.6909984 257.549,52.003 C257.549,52.3090015 257.5955,52.5954987 257.6885,52.8625 C257.7815,53.1295013 257.914999,53.358999 258.089,53.551 C258.263001,53.743001 258.471499,53.8944994 258.7145,54.0055 C258.957501,54.1165006 259.231998,54.172 259.538,54.172 L259.538,54.172 Z M270.809,55 L267.677,50.716 L267.677,55 L266.624,55 L266.624,48.997 L267.704,48.997 L270.773,53.164 L270.773,48.997 L271.826,48.997 L271.826,55 L270.809,55 Z M278.156,55.108 C277.597997,55.108 277.119502,55.0210009 276.7205,54.847 C276.321498,54.6729991 275.987001,54.4420014 275.717,54.154 L276.302,53.344 C276.512001,53.5660011 276.775998,53.7594992 277.094,53.9245 C277.412002,54.0895008 277.780998,54.172 278.201,54.172 C278.417001,54.172 278.601499,54.1480002 278.7545,54.1 C278.907501,54.0519998 279.032,53.9890004 279.128,53.911 C279.224,53.8329996 279.2945,53.7460005 279.3395,53.65 C279.3845,53.5539995 279.407,53.4550005 279.407,53.353 C279.407,53.1969992 279.3575,53.0680005 279.2585,52.966 C279.1595,52.8639995 279.027501,52.7785003 278.8625,52.7095 C278.697499,52.6404997 278.510001,52.5805003 278.3,52.5295 C278.089999,52.4784997 277.875501,52.4230003 277.6565,52.363 C277.437499,52.3029997 277.223001,52.2325004 277.013,52.1515 C276.802999,52.0704996 276.615501,51.9655006 276.4505,51.8365 C276.285499,51.7074994 276.1535,51.5485009 276.0545,51.3595 C275.9555,51.1704991 275.906,50.9380014 275.906,50.662 C275.906,50.4159988 275.958499,50.1865011 276.0635,49.9735 C276.168501,49.7604989 276.316999,49.5745008 276.509,49.4155 C276.701001,49.2564992 276.930499,49.1320005 277.1975,49.042 C277.464501,48.9519996 277.762998,48.907 278.093,48.907 C278.561002,48.907 278.982498,48.9789993 279.3575,49.123 C279.732502,49.2670007 280.060999,49.4739987 280.343,49.744 L279.74,50.527 C279.505999,50.2929988 279.237502,50.1205006 278.9345,50.0095 C278.631498,49.8984994 278.321002,49.843 278.003,49.843 C277.690998,49.843 277.443501,49.9104993 277.2605,50.0455 C277.077499,50.1805007 276.986,50.3619989 276.986,50.59 C276.986,50.7760009 277.071499,50.9184995 277.2425,51.0175 C277.413501,51.1165005 277.629499,51.2034996 277.8905,51.2785 C278.151501,51.3535004 278.431998,51.4284996 278.732,51.5035 C279.032001,51.5785004 279.312499,51.6834993 279.5735,51.8185 C279.834501,51.9535007 280.050499,52.1334989 280.2215,52.3585 C280.392501,52.5835011 280.478,52.8819981 280.478,53.254 C280.478,53.5060013 280.433,53.7429989 280.343,53.965 C280.253,54.1870011 280.113501,54.3834991 279.9245,54.5545 C279.735499,54.7255009 279.494001,54.8604995 279.2,54.9595 C278.905999,55.0585005 278.558002,55.108 278.156,55.108 L278.156,55.108 Z M314.444,55 L313.112,52.759 L312.068,52.759 L312.068,55 L311.015,55 L311.015,48.997 L313.652,48.997 C313.946001,48.997 314.214499,49.0434995 314.4575,49.1365 C314.700501,49.2295005 314.907499,49.3584992 315.0785,49.5235 C315.249501,49.6885008 315.3815,49.8864988 315.4745,50.1175 C315.5675,50.3485012 315.614,50.6019986 315.614,50.878 C315.614,51.1480014 315.5735,51.384999 315.4925,51.589 C315.4115,51.793001 315.305001,51.9684993 315.173,52.1155 C315.040999,52.2625007 314.889501,52.3794996 314.7185,52.4665 C314.547499,52.5535004 314.372001,52.6119999 314.192,52.642 L315.659,55 L314.444,55 Z M313.508,51.832 C313.808001,51.832 314.053999,51.7450009 314.246,51.571 C314.438001,51.3969991 314.534,51.1660014 314.534,50.878 C314.534,50.5899986 314.438001,50.3590009 314.246,50.185 C314.053999,50.0109991 313.808001,49.924 313.508,49.924 L312.068,49.924 L312.068,51.832 L313.508,51.832 Z M319.667,55 L319.667,48.997 L323.78,48.997 L323.78,49.924 L320.72,49.924 L320.72,51.481 L323.717,51.481 L323.717,52.408 L320.72,52.408 L320.72,54.073 L323.78,54.073 L323.78,55 L319.667,55 Z M329.912,55.108 C329.353997,55.108 328.875502,55.0210009 328.4765,54.847 C328.077498,54.6729991 327.743001,54.4420014 327.473,54.154 L328.058,53.344 C328.268001,53.5660011 328.531998,53.7594992 328.85,53.9245 C329.168002,54.0895008 329.536998,54.172 329.957,54.172 C330.173001,54.172 330.357499,54.1480002 330.5105,54.1 C330.663501,54.0519998 330.788,53.9890004 330.884,53.911 C330.98,53.8329996 331.0505,53.7460005 331.0955,53.65 C331.1405,53.5539995 331.163,53.4550005 331.163,53.353 C331.163,53.1969992 331.1135,53.0680005 331.0145,52.966 C330.9155,52.8639995 330.783501,52.7785003 330.6185,52.7095 C330.453499,52.6404997 330.266001,52.5805003 330.056,52.5295 C329.845999,52.4784997 329.631501,52.4230003 329.4125,52.363 C329.193499,52.3029997 328.979001,52.2325004 328.769,52.1515 C328.558999,52.0704996 328.371501,51.9655006 328.2065,51.8365 C328.041499,51.7074994 327.9095,51.5485009 327.8105,51.3595 C327.7115,51.1704991 327.662,50.9380014 327.662,50.662 C327.662,50.4159988 327.714499,50.1865011 327.8195,49.9735 C327.924501,49.7604989 328.072999,49.5745008 328.265,49.4155 C328.457001,49.2564992 328.686499,49.1320005 328.9535,49.042 C329.220501,48.9519996 329.518998,48.907 329.849,48.907 C330.317002,48.907 330.738498,48.9789993 331.1135,49.123 C331.488502,49.2670007 331.816999,49.4739987 332.099,49.744 L331.496,50.527 C331.261999,50.2929988 330.993502,50.1205006 330.6905,50.0095 C330.387498,49.8984994 330.077002,49.843 329.759,49.843 C329.446998,49.843 329.199501,49.9104993 329.0165,50.0455 C328.833499,50.1805007 328.742,50.3619989 328.742,50.59 C328.742,50.7760009 328.827499,50.9184995 328.9985,51.0175 C329.169501,51.1165005 329.385499,51.2034996 329.6465,51.2785 C329.907501,51.3535004 330.187998,51.4284996 330.488,51.5035 C330.788001,51.5785004 331.068499,51.6834993 331.3295,51.8185 C331.590501,51.9535007 331.806499,52.1334989 331.9775,52.3585 C332.148501,52.5835011 332.234,52.8819981 332.234,53.254 C332.234,53.5060013 332.189,53.7429989 332.099,53.965 C332.009,54.1870011 331.869501,54.3834991 331.6805,54.5545 C331.491499,54.7255009 331.250001,54.8604995 330.956,54.9595 C330.661999,55.0585005 330.314002,55.108 329.912,55.108 L329.912,55.108 Z M338.807,55.108 C338.368998,55.108 337.988002,55.0480006 337.664,54.928 C337.339998,54.8079994 337.070001,54.6400011 336.854,54.424 C336.637999,54.2079989 336.476001,53.9485015 336.368,53.6455 C336.259999,53.3424985 336.206,53.0050019 336.206,52.633 L336.206,48.997 L337.268,48.997 L337.268,52.597 C337.268,53.0770024 337.396999,53.4594986 337.655,53.7445 C337.913001,54.0295014 338.296997,54.172 338.807,54.172 C339.311003,54.172 339.691999,54.0295014 339.95,53.7445 C340.208001,53.4594986 340.337,53.0770024 340.337,52.597 L340.337,48.997 L341.399,48.997 L341.399,52.624 C341.399,52.9960019 341.345001,53.3349985 341.237,53.641 C341.128999,53.9470015 340.967001,54.2079989 340.751,54.424 C340.534999,54.6400011 340.265002,54.8079994 339.941,54.928 C339.616998,55.0480006 339.239002,55.108 338.807,55.108 L338.807,55.108 Z M345.677,55 L345.677,48.997 L346.73,48.997 L346.73,54.073 L349.376,54.073 L349.376,55 L345.677,55 Z M353.861,55 L353.861,49.924 L352.043,49.924 L352.043,48.997 L356.732,48.997 L356.732,49.924 L354.914,49.924 L354.914,55 L353.861,55 Z M362.675,55.108 C362.116997,55.108 361.638502,55.0210009 361.2395,54.847 C360.840498,54.6729991 360.506001,54.4420014 360.236,54.154 L360.821,53.344 C361.031001,53.5660011 361.294998,53.7594992 361.613,53.9245 C361.931002,54.0895008 362.299998,54.172 362.72,54.172 C362.936001,54.172 363.120499,54.1480002 363.2735,54.1 C363.426501,54.0519998 363.551,53.9890004 363.647,53.911 C363.743,53.8329996 363.8135,53.7460005 363.8585,53.65 C363.9035,53.5539995 363.926,53.4550005 363.926,53.353 C363.926,53.1969992 363.8765,53.0680005 363.7775,52.966 C363.6785,52.8639995 363.546501,52.7785003 363.3815,52.7095 C363.216499,52.6404997 363.029001,52.5805003 362.819,52.5295 C362.608999,52.4784997 362.394501,52.4230003 362.1755,52.363 C361.956499,52.3029997 361.742001,52.2325004 361.532,52.1515 C361.321999,52.0704996 361.134501,51.9655006 360.9695,51.8365 C360.804499,51.7074994 360.6725,51.5485009 360.5735,51.3595 C360.4745,51.1704991 360.425,50.9380014 360.425,50.662 C360.425,50.4159988 360.477499,50.1865011 360.5825,49.9735 C360.687501,49.7604989 360.835999,49.5745008 361.028,49.4155 C361.220001,49.2564992 361.449499,49.1320005 361.7165,49.042 C361.983501,48.9519996 362.281998,48.907 362.612,48.907 C363.080002,48.907 363.501498,48.9789993 363.8765,49.123 C364.251502,49.2670007 364.579999,49.4739987 364.862,49.744 L364.259,50.527 C364.024999,50.2929988 363.756502,50.1205006 363.4535,50.0095 C363.150498,49.8984994 362.840002,49.843 362.522,49.843 C362.209998,49.843 361.962501,49.9104993 361.7795,50.0455 C361.596499,50.1805007 361.505,50.3619989 361.505,50.59 C361.505,50.7760009 361.590499,50.9184995 361.7615,51.0175 C361.932501,51.1165005 362.148499,51.2034996 362.4095,51.2785 C362.670501,51.3535004 362.950998,51.4284996 363.251,51.5035 C363.551001,51.5785004 363.831499,51.6834993 364.0925,51.8185 C364.353501,51.9535007 364.569499,52.1334989 364.7405,52.3585 C364.911501,52.5835011 364.997,52.8819981 364.997,53.254 C364.997,53.5060013 364.952,53.7429989 364.862,53.965 C364.772,54.1870011 364.632501,54.3834991 364.4435,54.5545 C364.254499,54.7255009 364.013001,54.8604995 363.719,54.9595 C363.424999,55.0585005 363.077002,55.108 362.675,55.108 L362.675,55.108 Z" id="SEARCH-----RECOMMEND"></path>
                <circle id="Oval-7" opacity="0.324277052" cx="136" cy="52" r="1"></circle>
                <circle id="Oval-7-Copy" opacity="0.324277052" cx="296" cy="52" r="1"></circle>
            </g>
        </g>
    </g>
</svg>